<svg width="52" height="54" viewBox="0 0 52 54" fill="none" xmlns="http://www.w3.org/2000/svg">
<path d="M12.2048 0.275848C10.5893 0.275848 9.32346 1.21691 9.32346 2.41829V4.77441H4.04319C3.11647 4.77549 2.22802 5.14411 1.57274 5.79941C0.917462 6.45471 0.548869 7.34317 0.547821 8.26989V50.2319C0.549306 51.1582 0.918142 52.046 1.57342 52.7007C2.22869 53.3554 3.1169 53.7235 4.04319 53.7242H47.9599C48.8858 53.7231 49.7734 53.3548 50.4281 52.7001C51.0828 52.0454 51.4511 51.1578 51.4522 50.2319V8.26989C51.4515 7.34358 51.0835 6.45535 50.4288 5.80005C49.7741 5.14475 48.8862 4.7759 47.9599 4.77441H42.6763V2.41829C42.6763 1.21691 41.4116 0.275848 39.7981 0.275848C38.1825 0.275848 36.9168 1.21691 36.9168 2.41829V4.77441H28.8814V2.41829C28.8814 1.21691 27.6156 0.275848 26 0.275848C24.3843 0.275848 23.1186 1.21691 23.1186 2.41829V4.77441H15.086V2.41829C15.0861 1.21691 13.8205 0.275848 12.2048 0.275848ZM11.0831 2.43138C11.1363 2.31612 11.5407 2.03546 12.2048 2.03546C12.869 2.03546 13.2732 2.31612 13.3266 2.43138V4.77441H11.0831V2.43138ZM2.307 15.7715H49.6925V41.9512H43.1342C42.9009 41.9512 42.6771 42.0439 42.5121 42.2089C42.3471 42.3739 42.2544 42.5977 42.2544 42.831V49.3897H4.04319C3.58291 49.3892 3.14164 49.2061 2.81622 48.8806C2.4908 48.5551 2.30781 48.1138 2.30744 47.6535L2.307 15.7715ZM48.4479 43.7108L44.014 48.1452V43.7106L48.4479 43.7108ZM47.9599 51.9645H4.04319C3.66981 51.9643 3.30644 51.8438 3.00684 51.621C2.70725 51.3982 2.48735 51.0848 2.37969 50.7273C2.8902 51.0048 3.46214 51.1498 4.04319 51.1491H43.1342C43.3676 51.149 43.5914 51.0563 43.7565 50.8914L49.6929 44.9549V50.2319C49.6924 50.6913 49.5096 51.1318 49.1847 51.4566C48.8598 51.7814 48.4193 51.9641 47.9599 51.9645ZM38.6765 2.43138C38.7289 2.31645 39.1328 2.03601 39.7982 2.03601C40.4618 2.03601 40.865 2.31645 40.9168 2.43127V4.77441H38.6766L38.6765 2.43138ZM24.8782 2.43138C24.9316 2.31623 25.3358 2.03546 26 2.03546C26.6641 2.03546 27.0683 2.31612 27.1217 2.43138V4.77441H24.8782V2.43138ZM26 10.2628C26.2333 10.2628 26.4571 10.1701 26.6221 10.0051C26.7871 9.84008 26.8798 9.6163 26.8798 9.38296C26.8798 9.14962 26.7871 8.92583 26.6221 8.76084C26.4571 8.59584 26.2333 8.50315 26 8.50315C25.3384 8.50315 24.9332 8.22205 24.8782 8.10614V6.53403H36.9169V8.12021C36.9169 9.32159 38.1825 10.2627 39.7982 10.2627C40.0316 10.2627 40.2554 10.17 40.4203 10.005C40.5853 9.83997 40.678 9.61619 40.678 9.38285C40.678 9.14951 40.5853 8.92572 40.4203 8.76073C40.2554 8.59573 40.0316 8.50304 39.7982 8.50304C39.1352 8.50304 38.7305 8.22216 38.6765 8.10658V6.53392H47.9599C48.4197 6.53485 48.8603 6.71814 49.1852 7.04356C49.51 7.36899 49.6925 7.80998 49.6925 8.26978V14.0118H2.30744V8.26989C2.3079 7.80967 2.49092 7.36844 2.81633 7.043C3.14175 6.71757 3.58297 6.53452 4.04319 6.53403H9.32368V8.12021C9.32368 9.32159 10.5893 10.2627 12.205 10.2627C12.4384 10.2627 12.6622 10.17 12.8272 10.005C12.9922 9.83997 13.0849 9.61619 13.0849 9.38285C13.0849 9.14951 12.9922 8.92572 12.8272 8.76073C12.6622 8.59573 12.4384 8.50304 12.205 8.50304C11.5434 8.50304 11.1383 8.22194 11.0833 8.10603V6.53403H23.1186V8.12021C23.1186 9.32159 24.3843 10.2628 26 10.2628ZM18.6769 26.2369H23.1537C23.387 26.2369 23.6108 26.1442 23.7758 25.9792C23.9408 25.8142 24.0335 25.5904 24.0335 25.3571V21.4072C24.0335 21.1738 23.9408 20.9501 23.7758 20.7851C23.6108 20.6201 23.387 20.5274 23.1537 20.5274H18.6769C18.4436 20.5274 18.2198 20.6201 18.0548 20.7851C17.8898 20.9501 17.7971 21.1738 17.7971 21.4072V25.3571C17.7971 25.5904 17.8898 25.8142 18.0548 25.9792C18.2198 26.1442 18.4436 26.2369 18.6769 26.2369ZM19.5567 22.287H22.2739V24.4773H19.5567V22.287ZM28.8463 26.2369H33.323C33.5563 26.2369 33.7801 26.1442 33.9451 25.9792C34.1101 25.8142 34.2028 25.5904 34.2028 25.3571V21.4072C34.2028 21.1738 34.1101 20.9501 33.9451 20.7851C33.7801 20.6201 33.5563 20.5274 33.323 20.5274H28.8463C28.6129 20.5274 28.3892 20.6201 28.2242 20.7851C28.0592 20.9501 27.9665 21.1738 27.9665 21.4072V25.3571C27.9665 25.5904 28.0592 25.8142 28.2242 25.9792C28.3892 26.1442 28.6129 26.2369 28.8463 26.2369ZM29.7261 22.287H32.4432V24.4773H29.7261V22.287ZM8.50755 35.9012H12.9873C13.2206 35.9012 13.4444 35.8085 13.6094 35.6435C13.7744 35.4785 13.8671 35.2548 13.8671 35.0214V31.0746C13.8671 30.8413 13.7744 30.6175 13.6094 30.4525C13.4444 30.2875 13.2206 30.1948 12.9873 30.1948H8.50755C8.27421 30.1948 8.05043 30.2875 7.88543 30.4525C7.72044 30.6175 7.62774 30.8413 7.62774 31.0746V35.0214C7.62774 35.2548 7.72044 35.4785 7.88543 35.6435C8.05043 35.8085 8.27421 35.9012 8.50755 35.9012ZM9.38736 31.9544H12.1075V34.1416H9.38736V31.9544ZM18.6769 35.9012H23.1537C23.387 35.9012 23.6108 35.8085 23.7758 35.6435C23.9408 35.4785 24.0335 35.2548 24.0335 35.0214V31.0746C24.0335 30.8413 23.9408 30.6175 23.7758 30.4525C23.6108 30.2875 23.387 30.1948 23.1537 30.1948H18.6769C18.4436 30.1948 18.2198 30.2875 18.0548 30.4525C17.8898 30.6175 17.7971 30.8413 17.7971 31.0746V35.0214C17.7971 35.2548 17.8898 35.4785 18.0548 35.6435C18.2198 35.8085 18.4436 35.9012 18.6769 35.9012ZM19.5567 31.9544H22.2739V34.1416H19.5567V31.9544ZM28.8463 35.9012H33.323C33.5563 35.9012 33.7801 35.8085 33.9451 35.6435C34.1101 35.4785 34.2028 35.2548 34.2028 35.0214V31.0746C34.2028 30.8413 34.1101 30.6175 33.9451 30.4525C33.7801 30.2875 33.5563 30.1948 33.323 30.1948H28.8463C28.6129 30.1948 28.3892 30.2875 28.2242 30.4525C28.0592 30.6175 27.9665 30.8413 27.9665 31.0746V35.0214C27.9665 35.2548 28.0592 35.4785 28.2242 35.6435C28.3892 35.8085 28.6129 35.9012 28.8463 35.9012ZM29.7261 31.9544H32.4432V34.1416H29.7261V31.9544ZM8.50755 45.5656H12.9873C13.2206 45.5656 13.4444 45.4729 13.6094 45.3079C13.7744 45.1429 13.8671 44.9191 13.8671 44.6858V40.739C13.8671 40.5056 13.7744 40.2818 13.6094 40.1169C13.4444 39.9519 13.2206 39.8592 12.9873 39.8592H8.50755C8.27421 39.8592 8.05043 39.9519 7.88543 40.1169C7.72044 40.2818 7.62774 40.5056 7.62774 40.739V44.6858C7.62774 44.9191 7.72044 45.1429 7.88543 45.3079C8.05043 45.4729 8.27421 45.5656 8.50755 45.5656ZM9.38736 41.6188H12.1075V43.806H9.38736V41.6188ZM18.6769 45.5656H23.1537C23.387 45.5656 23.6108 45.4729 23.7758 45.3079C23.9408 45.1429 24.0335 44.9191 24.0335 44.6858V40.739C24.0335 40.5056 23.9408 40.2818 23.7758 40.1169C23.6108 39.9519 23.387 39.8592 23.1537 39.8592H18.6769C18.4436 39.8592 18.2198 39.9519 18.0548 40.1169C17.8898 40.2818 17.7971 40.5056 17.7971 40.739V44.6858C17.7971 44.9191 17.8898 45.1429 18.0548 45.3079C18.2198 45.4729 18.4436 45.5656 18.6769 45.5656ZM19.5567 41.6188H22.2739V43.806H19.5567V41.6188ZM8.50755 26.2369H12.9873C13.2206 26.2369 13.4444 26.1442 13.6094 25.9792C13.7744 25.8142 13.8671 25.5904 13.8671 25.3571V21.4072C13.8671 21.1738 13.7744 20.9501 13.6094 20.7851C13.4444 20.6201 13.2206 20.5274 12.9873 20.5274H8.50755C8.27421 20.5274 8.05043 20.6201 7.88543 20.7851C7.72044 20.9501 7.62774 21.1738 7.62774 21.4072V25.3571C7.62774 25.5904 7.72044 25.8142 7.88543 25.9792C8.05043 26.1442 8.27421 26.2369 8.50755 26.2369ZM9.38736 22.287H12.1075V24.4773H9.38736V22.287ZM43.4924 30.1948H39.0156C38.7823 30.1948 38.5585 30.2875 38.3935 30.4525C38.2285 30.6175 38.1358 30.8413 38.1358 31.0746V35.0214C38.1358 35.2548 38.2285 35.4785 38.3935 35.6435C38.5585 35.8085 38.7823 35.9012 39.0156 35.9012H43.4924C43.7258 35.9012 43.9496 35.8085 44.1146 35.6435C44.2795 35.4785 44.3722 35.2548 44.3722 35.0214V31.0746C44.3722 30.8413 44.2795 30.6175 44.1146 30.4525C43.9496 30.2875 43.7258 30.1948 43.4924 30.1948ZM42.6126 34.1416H39.8955V31.9544H42.6126V34.1416ZM28.8463 45.5656H33.323C33.5563 45.5656 33.7801 45.4729 33.9451 45.3079C34.1101 45.1429 34.2028 44.9191 34.2028 44.6858V40.739C34.2028 40.5056 34.1101 40.2818 33.9451 40.1169C33.7801 39.9519 33.5563 39.8592 33.323 39.8592H28.8463C28.6129 39.8592 28.3892 39.9519 28.2242 40.1169C28.0592 40.2818 27.9665 40.5056 27.9665 40.739V44.6858C27.9665 44.9191 28.0592 45.1429 28.2242 45.3079C28.3892 45.4729 28.6129 45.5656 28.8463 45.5656ZM29.7261 41.6188H32.4432V43.806H29.7261V41.6188ZM38.2712 23.9362C38.1886 23.8549 38.1228 23.7581 38.0777 23.6514C38.0325 23.5446 38.009 23.43 38.0083 23.314C38.0076 23.1981 38.0298 23.0832 38.0737 22.9759C38.1175 22.8687 38.1822 22.7711 38.2638 22.6888C38.3455 22.6066 38.4426 22.5413 38.5496 22.4967C38.6566 22.4521 38.7714 22.4291 38.8873 22.429C39.0032 22.4289 39.118 22.4517 39.2251 22.4961C39.3321 22.5405 39.4294 22.6056 39.5112 22.6877L40.6433 23.812L42.9457 21.0913C43.0965 20.9132 43.3118 20.8022 43.5443 20.7829C43.7769 20.7635 44.0076 20.8373 44.1857 20.9881C44.3638 21.1388 44.4748 21.3541 44.4942 21.5867C44.5135 21.8192 44.4397 22.0499 44.289 22.228L41.371 25.676C41.2925 25.7688 41.1956 25.8443 41.0864 25.8978C40.9773 25.9512 40.8582 25.9815 40.7368 25.9867C40.7241 25.9867 40.7114 25.9875 40.6988 25.9875C40.4665 25.9875 40.2436 25.8956 40.0788 25.7319L38.2712 23.9362Z" fill="#005740"/>
</svg>
