<svg width="55" height="55" viewBox="0 0 55 55" fill="none" xmlns="http://www.w3.org/2000/svg">
<path d="M20.625 35.3865V27.0703C20.625 25.4117 19.2758 24.0625 17.6172 24.0625C17.154 24.0625 16.72 24.1768 16.3281 24.3641V19.3359C16.3281 17.6773 14.9789 16.3281 13.3203 16.3281C12.8571 16.3281 12.4231 16.4424 12.0312 16.6298V14.1797C12.0312 12.5211 10.682 11.1719 9.02344 11.1719C7.62695 11.1719 6.45906 12.1344 6.12305 13.4269C5.59195 13.0917 4.96891 12.8906 4.29688 12.8906C2.40109 12.8906 0.859375 14.4323 0.859375 16.3281V30.9375C0.859375 31.081 0.895469 31.2228 0.964219 31.3491L6.12047 40.8023C6.16 40.8736 6.20984 40.9406 6.26742 40.9982L12.9955 47.7262C13.475 48.2058 13.75 48.8701 13.75 49.549V53.2812C13.75 53.7556 14.135 54.1406 14.6094 54.1406H24.9219C25.3962 54.1406 25.7812 53.7556 25.7812 53.2812V42.6052C25.7812 41.513 25.3705 40.4714 24.6254 39.673L20.625 35.3865ZM17.6172 25.7812C18.3279 25.7812 18.9062 26.3596 18.9062 27.0703V33.5448L16.3281 30.7828V27.0703C16.3281 26.3596 16.9065 25.7812 17.6172 25.7812ZM13.3203 18.0469C14.031 18.0469 14.6094 18.6252 14.6094 19.3359V27.0703V28.9412L14.0284 28.319C13.5429 27.7991 12.8562 27.5 12.1438 27.5H12.0312V19.3359C12.0312 18.6252 12.6096 18.0469 13.3203 18.0469ZM7.73438 14.1797C7.73438 13.469 8.31273 12.8906 9.02344 12.8906C9.73414 12.8906 10.3125 13.469 10.3125 14.1797V19.3359V28.1686C9.93094 28.5123 9.64648 28.9635 9.52359 29.48L7.73438 27.2027V16.3281V14.1797ZM24.0625 52.4219H15.4688V49.549C15.4688 48.4017 15.0219 47.3223 14.2106 46.5111L7.57023 39.8707L2.57812 30.7184V16.3281C2.57812 15.3802 3.34898 14.6094 4.29688 14.6094C5.24477 14.6094 6.01562 15.3802 6.01562 16.3281V27.5C6.01562 27.6925 6.08008 27.879 6.19953 28.0311L15.6527 40.0623L17.0036 39.001L11.1719 31.5777V30.0781C11.1719 29.6046 11.5577 29.2188 12.0312 29.2188H12.1438C12.381 29.2188 12.6096 29.3184 12.772 29.4912L23.3698 40.8452C23.8159 41.3248 24.0625 41.9495 24.0625 42.6052V52.4219Z" fill="#005740"/>
<path d="M50.7031 12.8906C50.0311 12.8906 49.408 13.0917 48.877 13.4269C48.5409 12.1344 47.373 11.1719 45.9766 11.1719C44.318 11.1719 42.9688 12.5211 42.9688 14.1797V16.6298C42.5769 16.4424 42.1429 16.3281 41.6797 16.3281C40.0211 16.3281 38.6719 17.6773 38.6719 19.3359V24.3641C38.28 24.1768 37.846 24.0625 37.3828 24.0625C35.7242 24.0625 34.375 25.4117 34.375 27.0703V35.3865L30.3746 39.673C29.6295 40.4714 29.2188 41.513 29.2188 42.6052V53.2812C29.2188 53.7556 29.6038 54.1406 30.0781 54.1406H40.3906C40.865 54.1406 41.25 53.7556 41.25 53.2812V49.549C41.25 48.8701 41.525 48.2066 42.0045 47.7262L48.7326 40.9982C48.7902 40.9406 48.84 40.8736 48.8795 40.8023L54.0358 31.3491C54.1045 31.2228 54.1406 31.081 54.1406 30.9375V16.3281C54.1406 14.4323 52.5989 12.8906 50.7031 12.8906ZM44.6875 14.1797C44.6875 13.469 45.2659 12.8906 45.9766 12.8906C46.6873 12.8906 47.2656 13.469 47.2656 14.1797V16.3281V27.2027L45.4764 29.4791C45.3535 28.9627 45.0691 28.5123 44.6875 28.1677V19.3359V14.1797ZM40.3906 19.3359C40.3906 18.6252 40.969 18.0469 41.6797 18.0469C42.3904 18.0469 42.9688 18.6252 42.9688 19.3359V27.5H42.8562C42.1437 27.5 41.4571 27.7991 40.9716 28.319L40.3906 28.942V27.0703V19.3359ZM36.0938 27.0703C36.0938 26.3596 36.6721 25.7812 37.3828 25.7812C38.0935 25.7812 38.6719 26.3596 38.6719 27.0703V30.7828L36.0938 33.5448V27.0703ZM52.4219 30.7184L47.4298 39.8698L40.7894 46.5102C39.9781 47.3223 39.5312 48.4009 39.5312 49.549V52.4219H30.9375V42.6052C30.9375 41.9495 31.1841 41.3248 31.631 40.8461L42.2288 29.492C42.3904 29.3184 42.619 29.2188 42.8562 29.2188H42.9688C43.4423 29.2188 43.8281 29.6046 43.8281 30.0781V31.5777L37.9964 39.0002L39.3473 40.0615L48.8005 28.0302C48.9199 27.879 48.9844 27.6925 48.9844 27.5V16.3281C48.9844 15.3802 49.7552 14.6094 50.7031 14.6094C51.651 14.6094 52.4219 15.3802 52.4219 16.3281V30.7184Z" fill="#005740"/>
<path d="M40.3751 7.93891C40.2308 5.62031 39.068 3.53117 37.1868 2.20688C34.4411 0.275003 30.7321 0.44344 28.1668 2.61594L27.5 3.18141L26.8322 2.61594C24.267 0.44344 20.5588 0.275003 17.8122 2.20688C15.9311 3.53117 14.7683 5.62031 14.624 7.93891C14.4787 10.2644 15.3759 12.4893 17.0861 14.0439L26.9216 22.9891C27.0858 23.1378 27.2929 23.2126 27.5 23.2126C27.7071 23.2126 27.9142 23.1378 28.0783 22.9891L37.9139 14.0439C39.6232 12.4893 40.5204 10.2644 40.3751 7.93891ZM27.5 21.1931L18.2428 12.7738C16.9211 11.5715 16.2276 9.84844 16.3401 8.04719C16.4518 6.25196 17.3499 4.63547 18.8022 3.61367C19.7811 2.92446 20.9189 2.58414 22.055 2.58414C23.3629 2.58414 24.6683 3.03532 25.7211 3.92821L26.944 4.96461C27.2645 5.23531 27.7346 5.23531 28.0551 4.96461L29.2789 3.92735C31.246 2.26102 34.0922 2.13039 36.1977 3.61282C37.65 4.63461 38.5481 6.2511 38.6598 8.04633C38.7724 9.84844 38.0789 11.5715 36.7572 12.7729L27.5 21.1931Z" fill="#005740"/>
</svg>
