<svg width="52" height="52" viewBox="0 0 52 52" fill="none" xmlns="http://www.w3.org/2000/svg">
<path d="M17.8897 20.4076C18.3942 20.4076 18.8874 20.258 19.3069 19.9777C19.7264 19.6974 20.0534 19.299 20.2465 18.8329C20.4395 18.3668 20.4901 17.8538 20.3916 17.359C20.2932 16.8642 20.0503 16.4096 19.6935 16.0529C19.3367 15.6961 18.8822 15.4532 18.3874 15.3547C17.8925 15.2563 17.3796 15.3068 16.9135 15.4999C16.4474 15.693 16.049 16.0199 15.7687 16.4394C15.4884 16.8589 15.3387 17.3521 15.3387 17.8567C15.3395 18.533 15.6085 19.1814 16.0867 19.6596C16.565 20.1379 17.2134 20.4069 17.8897 20.4076ZM17.8897 17.0064C18.0579 17.0064 18.2223 17.0562 18.3621 17.1497C18.5019 17.2431 18.6109 17.3759 18.6753 17.5313C18.7396 17.6867 18.7565 17.8576 18.7237 18.0226C18.6909 18.1875 18.6099 18.339 18.491 18.4579C18.372 18.5769 18.2205 18.6578 18.0556 18.6907C17.8906 18.7235 17.7197 18.7066 17.5643 18.6423C17.4089 18.5779 17.2761 18.4689 17.1827 18.3291C17.0893 18.1893 17.0394 18.0249 17.0394 17.8567C17.0396 17.6312 17.1293 17.4151 17.2887 17.2557C17.4481 17.0963 17.6643 17.0066 17.8897 17.0064Z" fill="#005740"/>
<path d="M24.6923 35.7134H26.3929C26.3896 34.5267 26.7423 33.3662 27.4055 32.3822C28.0688 31.3981 29.012 30.6357 30.1133 30.1935L29.4751 28.6172C28.0594 29.1856 26.8468 30.1658 25.9941 31.4309C25.1414 32.696 24.6879 34.1878 24.6923 35.7134Z" fill="#005740"/>
<path d="M49.0326 43.151L49.4854 42.0946C49.9748 40.9497 50.0088 39.6611 49.5805 38.4919C49.1523 37.3227 48.294 36.3611 47.1808 35.8032L46.4203 37.3242C47.1458 37.6878 47.7052 38.3146 47.9843 39.0766C48.2634 39.8387 48.2412 40.6785 47.9223 41.4247L47.4343 42.5634C46.3909 42.4046 45.3258 42.6389 44.4454 43.2208C43.565 43.8027 42.932 44.6908 42.6692 45.7129C42.4064 46.735 42.5325 47.8183 43.023 48.7528C43.5135 49.6872 44.3335 50.4062 45.324 50.7704C46.3146 51.1346 47.405 51.118 48.384 50.7238C49.363 50.3297 50.1608 49.5861 50.6226 48.6371C51.0845 47.6882 51.1776 46.6016 50.8838 45.588C50.59 44.5743 49.9303 43.7059 49.0326 43.151ZM46.8005 49.3185C46.296 49.3185 45.8028 49.1689 45.3833 48.8886C44.9638 48.6082 44.6368 48.2098 44.4438 47.7437C44.2507 47.2776 44.2002 46.7647 44.2986 46.2698C44.397 45.775 44.64 45.3205 44.9967 44.9637C45.3535 44.607 45.808 44.364 46.3029 44.2656C46.7977 44.1671 47.3106 44.2177 47.7767 44.4107C48.2429 44.6038 48.6413 44.9308 48.9216 45.3503C49.2019 45.7698 49.3515 46.263 49.3515 46.7675C49.3507 47.4438 49.0817 48.0922 48.6035 48.5705C48.1252 49.0487 47.4768 49.3177 46.8005 49.3185Z" fill="#005740"/>
<path d="M50.5844 19.2865C50.1606 18.3249 49.4718 17.5038 48.5986 16.9192L51.4896 15.1846L50.6146 13.7262L48.1234 15.221L49.3261 10.4101L47.6762 9.99757L46.2745 15.6045L44.1808 10.7192L42.6177 11.3891L44.5439 15.8837C43.0965 16.0344 41.7677 16.7524 40.8483 17.8805V16.5575C40.8478 16.1616 40.7556 15.7711 40.579 15.4167L36.5967 7.45211V2.55095C36.5967 2.32544 36.5071 2.10916 36.3476 1.94969C36.1882 1.79023 35.9719 1.70064 35.7464 1.70064H28.9438C28.7183 1.70064 28.502 1.79023 28.3426 1.94969C28.1831 2.10916 28.0935 2.32544 28.0935 2.55095V7.45211L25.9677 11.7037L22.6668 5.10191H22.9916C23.1208 5.1019 23.2483 5.07244 23.3645 5.01577C23.4806 4.9591 23.5823 4.87671 23.6618 4.77486C23.7413 4.67301 23.7966 4.55437 23.8234 4.42797C23.8502 4.30156 23.8479 4.1707 23.8165 4.04534L22.9662 0.64407C22.9202 0.4601 22.8141 0.296785 22.6646 0.180085C22.5151 0.0633849 22.3309 -2.06722e-06 22.1413 0H13.6381C13.4485 -2.06722e-06 13.2643 0.0633849 13.1148 0.180085C12.9653 0.296785 12.8592 0.4601 12.8132 0.64407L11.9628 4.04534C11.9315 4.1707 11.9292 4.30156 11.956 4.42797C11.9828 4.55437 12.0381 4.67301 12.1176 4.77486C12.1971 4.87671 12.2988 4.9591 12.4149 5.01577C12.5311 5.07244 12.6586 5.1019 12.7878 5.10191H13.1126L9.65582 12.0154C9.47915 12.3698 9.38698 12.7603 9.38652 13.1563V25.5095H7.35651L6.92348 17.7152C6.88711 17.0642 6.60294 16.4519 6.1293 16.0038C5.65565 15.5557 5.02847 15.3059 4.37647 15.3057H0.03302V17.0064H4.37647C4.59379 17.0064 4.80283 17.0897 4.9607 17.239C5.11857 17.3884 5.2133 17.5925 5.22544 17.8094L5.65323 25.5095H0.883338C0.766568 25.5095 0.651051 25.5336 0.543985 25.5802C0.43692 25.6268 0.340601 25.695 0.261031 25.7804C0.18146 25.8659 0.120344 25.9668 0.0814909 26.0769C0.0426377 26.1871 0.02688 26.304 0.0352 26.4205L1.62301 48.6499C1.67103 49.2926 1.95969 49.8935 2.43136 50.3327C2.90303 50.7718 3.523 51.017 4.16748 51.0191H14.6056C15.25 51.017 15.87 50.7718 16.3417 50.3327C16.8133 49.8935 17.102 49.2926 17.15 48.6499L17.2843 46.7702C19.2399 49.1026 22.0159 50.5958 25.0399 50.942C28.064 51.2881 31.1056 50.4608 33.5377 48.6305C33.6336 49.2561 33.9295 49.8338 34.3811 50.2773C34.8326 50.7208 35.4156 51.0062 36.0428 51.0908C36.67 51.1755 37.3078 51.0548 37.8608 50.7469C38.4137 50.4391 38.8522 49.9604 39.1106 49.3827L50.5699 23.7678C50.8845 23.0631 51.0483 22.3004 51.0508 21.5287C51.0533 20.7569 50.8944 19.9932 50.5844 19.2865ZM16.6232 39.1146H24.34L19.84 43.6146C18.5292 42.5514 17.4995 41.1827 16.8413 39.6285L16.6232 39.1146ZM25.5426 40.3172V45.8862C24.0408 45.7715 22.5825 45.3288 21.2703 44.5894L25.5426 40.3172ZM27.2432 40.3172L31.4675 44.5415C30.1724 45.2863 28.7312 45.7413 27.2432 45.8754V40.3172ZM32.8903 43.5592L28.4458 39.1146H36.0973L35.6478 40.0537C34.9964 41.41 34.0551 42.6067 32.8903 43.5592ZM35.8527 37.414H23.1466C22.9109 36.1351 22.9443 34.8211 23.2448 33.5559C23.5452 32.2906 24.1061 31.1019 24.8916 30.0654C25.677 29.029 26.6699 28.1677 27.8068 27.5364C28.9438 26.9051 30.1998 26.5177 31.4948 26.3989V28.0605H33.1954V26.3985C34.9082 26.5544 36.5446 27.1803 37.9242 28.2071L35.8527 37.414ZM24.6922 13.6051V22.1083H11.0872V13.6051H24.6922ZM29.4694 8.50318H35.2208L37.7718 13.6051H26.9184L29.4694 8.50318ZM26.3929 15.3057H38.6221L39.0579 16.1773C39.1168 16.2954 39.1475 16.4256 39.1476 16.5575V22.7697L38.3265 26.4194C36.7858 25.4273 35.0225 24.8345 33.1954 24.6943V23.8793C33.1921 22.6343 33.6322 21.4289 34.4369 20.479C35.2416 19.5291 36.3582 18.8968 37.5868 18.6955L37.3072 17.0179C35.6811 17.2844 34.2031 18.1214 33.138 19.3787C32.0729 20.636 31.4904 22.2315 31.4948 23.8793V24.6916C29.6786 24.8299 27.9253 25.4177 26.3929 26.4022V15.3057ZM29.7941 3.40127H34.896V6.80254H29.7941V3.40127ZM14.302 1.70064H21.4774L21.9025 3.40127H13.8768L14.302 1.70064ZM20.7654 5.10191L24.1667 11.9044H11.6127L15.014 5.10191H20.7654ZM11.0872 23.8089H24.6922V27.7444C23.6164 28.7741 22.7604 30.011 22.1758 31.3807C21.5912 32.7503 21.2902 34.2242 21.291 35.7133C21.2911 36.2827 21.3348 36.8513 21.4218 37.414H17.9526L18.7378 26.4205C18.7462 26.304 18.7304 26.1871 18.6915 26.0769C18.6527 25.9668 18.5916 25.8659 18.512 25.7804C18.4324 25.695 18.3361 25.6268 18.229 25.5802C18.122 25.5336 18.0065 25.5095 17.8897 25.5095H11.0872V23.8089ZM16.9765 27.2102L16.7335 30.6114H7.63995L7.45098 27.2102H16.9765ZM5.74771 27.2102L5.93667 30.6114H2.0395L1.79656 27.2102H5.74771ZM15.4537 48.5286C15.4377 48.7429 15.3415 48.9432 15.1843 49.0896C15.0271 49.236 14.8204 49.3177 14.6056 49.3184H4.16748C3.95264 49.3177 3.74598 49.236 3.58875 49.0896C3.43152 48.9432 3.33529 48.7429 3.31929 48.5286L2.16097 32.3121H6.03115L6.83686 46.8146L8.5349 46.7204L7.73443 32.3121H16.6121L16.2476 37.414H15.3387C15.1132 37.414 14.8969 37.5036 14.7375 37.663C14.578 37.8225 14.4884 38.0388 14.4884 38.2643V39.1146C14.4864 40.9622 14.9171 42.7846 15.7461 44.4358L15.4537 48.5286ZM17.0611 43.2399C18.2085 44.6327 19.6547 45.7493 21.2924 46.5069C22.9302 47.2646 24.7175 47.6438 26.5218 47.6165C28.3262 47.5891 30.1012 47.1559 31.7152 46.349C33.3293 45.5421 34.741 44.3822 35.8457 42.9553C35.0917 44.8115 33.8079 46.4047 32.1544 47.5361C30.5009 48.6674 28.5509 49.2869 26.5476 49.3173C24.5443 49.3476 22.5764 48.7875 20.8894 47.7067C19.2024 46.6259 17.8709 45.0724 17.0611 43.2399ZM37.5582 48.6883C37.4334 48.967 37.2096 49.1895 36.93 49.3124C36.6505 49.4354 36.3352 49.4501 36.0455 49.3536C35.7557 49.2572 35.5121 49.0565 35.362 48.7906C35.2119 48.5246 35.166 48.2124 35.2332 47.9145L35.4855 46.789C36.2784 45.8518 36.9218 44.7979 37.3929 43.6643L39.0599 45.3314L37.5582 48.6883ZM49.0175 23.0734L48.2138 24.8699L45.7011 22.3573L44.4986 23.5599L47.4704 26.5316L45.8483 30.1573L43.1502 27.4592L41.9477 28.6618L45.1049 31.8191L42.9572 36.6198L40.5992 34.2617L39.3967 35.4643L42.2138 38.2815L39.8033 43.6697L37.9805 41.8468C38.1914 40.9514 38.2977 40.0345 38.2973 39.1146V38.2643C38.2972 38.0642 38.2265 37.8705 38.0976 37.7174C37.9687 37.5643 37.7899 37.4616 37.5928 37.4273L40.8483 22.9586L40.8483 22.9585L41.3929 20.5379C41.5103 20.0161 41.7358 19.5247 42.0549 19.0954C42.3739 18.6661 42.7794 18.3085 43.2452 18.0456C43.711 17.7827 44.2267 17.6204 44.7591 17.5691C45.2915 17.5178 45.8287 17.5787 46.3361 17.7479L46.7347 17.8808C47.2414 18.0501 47.7072 18.3235 48.102 18.6835C48.4969 19.0434 48.8121 19.4819 49.0275 19.9708C49.2453 20.4593 49.357 20.9884 49.3553 21.5232C49.3535 22.058 49.2384 22.5863 49.0175 23.0734Z" fill="#005740"/>
</svg>
