<svg width="62" height="62" viewBox="0 0 62 62" fill="none" xmlns="http://www.w3.org/2000/svg">
<g clip-path="url(#clip0_0_97)">
<path d="M39.6094 23.3594C38.8994 23.3523 38.5023 24.0266 38.5937 24.6797L28.2598 28.4375H24.8828C19.8585 28.6843 20.3653 35.9267 25.3906 35.5469V38.5937C25.3906 39.1554 25.8456 39.6094 26.4062 39.6094C26.9669 39.6094 27.4219 39.1554 27.4219 38.5937V35.5469H28.2598L38.5937 39.3047C38.3642 40.8312 40.5001 41.1531 40.625 39.6094V38.5937V24.375C40.625 23.8134 40.17 23.3594 39.6094 23.3594ZM23.3594 31.9922C23.3594 31.1523 24.0429 30.4687 24.8828 30.4687H27.4219V33.5156H24.8828C24.0429 33.5156 23.3594 32.8321 23.3594 31.9922ZM29.4531 33.8203V30.1641L38.5937 26.8409V37.1445L29.4531 33.8203Z" fill="#005740"/>
<path d="M56.875 31.4844C55.1637 31.4844 53.7032 32.5508 53.106 34.0529L49.7088 33.6243C49.8449 32.11 49.7159 30.5358 49.4224 29.0773L52.0559 28.3837C52.5982 28.2405 52.9222 27.6849 52.779 27.1426C52.6368 26.6012 52.0833 26.2752 51.5379 26.4194L48.8942 27.1151C48.361 25.4942 47.5942 23.9809 46.6324 22.6108L54.4345 16.4287C56.9806 18.4803 61.0076 16.4907 60.9365 13.2011C60.9365 10.9606 59.1145 9.13858 56.874 9.13858C54.0028 9.07256 51.9411 12.2596 53.1649 14.8423L45.3639 21.0234C42.4115 17.7176 38.217 15.5604 33.5146 15.2841V12.0412C38.0626 10.8255 37.2491 4.12342 32.499 4.06046C27.7489 4.12444 26.9354 10.8255 31.4834 12.0412V15.2841C27.6443 15.5086 24.1384 16.9782 21.3749 19.3151L16.638 14.3305C18.3615 11.768 16.313 8.03358 13.2021 8.12397C10.9627 8.12397 9.13962 9.946 9.13962 12.1865C9.05837 15.2029 12.5856 17.2748 15.1602 15.7239L19.9093 20.7218C18.4041 22.3305 17.2057 24.2216 16.3993 26.3128L10.464 24.4217C9.92977 24.2511 9.35798 24.5466 9.18837 25.0808C9.01774 25.6151 9.31329 26.1869 9.84751 26.3575L15.7849 28.2486C15.1602 30.6048 15.0607 33.2769 15.5411 35.689L11.6726 36.6559C9.70735 33.0027 4.07165 34.3992 4.06149 38.5927C4.22907 43.943 11.9803 43.9694 12.1834 38.6212L16.0235 37.6614C17.1631 41.2912 19.4797 44.398 22.5154 46.5593L18.4793 53.0176C15.9402 52.129 13.1544 54.1907 13.2021 56.874C13.2021 59.1144 15.0241 60.9365 17.2646 60.9365C20.7675 61.0137 22.6637 56.5358 20.2059 54.0881L24.2288 47.6501C26.4052 48.8424 28.8691 49.5605 31.4824 49.7138V55.7588C31.4824 56.3205 31.9374 56.7744 32.498 56.7744C33.0586 56.7744 33.5136 56.3205 33.5136 55.7588V49.7138C36.789 49.5219 39.8206 48.426 42.3567 46.6537L46.5573 52.3778C44.4742 54.9179 46.4598 58.9773 49.7636 58.9052C52.0031 58.9052 53.8261 57.0832 53.8261 54.8427C53.8901 51.9837 50.7345 49.9271 48.1518 51.1174L43.9471 45.3872C46.7604 42.8858 48.752 39.4895 49.463 35.6403L52.8633 36.0689C53.6199 41.0475 60.8075 40.5976 60.9355 35.5458C60.9355 33.3054 59.1134 31.4833 56.873 31.4833L56.875 31.4844ZM56.875 11.1719C59.5532 11.2419 59.5532 15.1643 56.875 15.2344C54.1968 15.1643 54.1968 11.2419 56.875 11.1719ZM8.12501 40.625C5.44681 40.5549 5.44681 36.6326 8.12501 36.5625C10.8032 36.6326 10.8032 40.5549 8.12501 40.625ZM17.2656 58.9062C14.5874 58.8362 14.5874 54.9138 17.2656 54.8437C19.9438 54.9138 19.9438 58.8362 17.2656 58.9062ZM51.7969 54.8437C51.7268 57.5219 47.8045 57.5219 47.7344 54.8437C47.8045 52.1655 51.7268 52.1655 51.7969 54.8437ZM30.4688 8.12499C30.5388 5.44678 34.4612 5.44678 34.5313 8.12499C34.4612 10.8032 30.5388 10.8032 30.4688 8.12499ZM11.1719 12.1875C11.242 9.50928 15.1643 9.50928 15.2344 12.1875C15.1582 14.8616 11.243 14.8667 11.1719 12.1875ZM32.5 47.7344C24.0998 47.7344 17.2656 40.9002 17.2656 32.5C18.1025 12.2891 46.9006 12.2951 47.7344 32.5C47.7344 40.9002 40.9002 47.7344 32.5 47.7344ZM56.875 37.5781C54.1968 37.508 54.1968 33.5857 56.875 33.5156C59.5532 33.5857 59.5532 37.508 56.875 37.5781Z" fill="#005740"/>
</g>
<defs>
<clipPath id="clip0_0_97">
<rect width="62" height="62" fill="white"/>
</clipPath>
</defs>
</svg>
