<svg width="154" height="158" viewBox="0 0 154 158" fill="none" xmlns="http://www.w3.org/2000/svg">
<path d="M75.1213 2.14632C75.7609 0.394119 78.2391 0.394126 78.8787 2.14633L90.4036 33.7161C90.8481 34.9336 92.3156 35.4133 93.3933 34.6933L121.741 15.7556C123.301 14.7135 125.308 16.1992 124.767 17.9955L115.131 49.9867C114.751 51.2485 115.674 52.5266 116.991 52.5628L151.168 53.5032C153.06 53.5553 153.828 55.9629 152.315 57.1008L125.325 77.4017C124.261 78.2018 124.261 79.7982 125.325 80.5983L152.315 100.899C153.828 102.037 153.06 104.445 151.168 104.497L116.991 105.437C115.674 105.473 114.751 106.751 115.131 108.013L124.767 140.004C125.308 141.801 123.301 143.286 121.741 142.244L93.3933 123.307C92.3156 122.587 90.8481 123.066 90.4036 124.284L78.8787 155.854C78.2391 157.606 75.7609 157.606 75.1213 155.854L63.5964 124.284C63.1519 123.066 61.6844 122.587 60.6067 123.307L32.259 142.244C30.699 143.286 28.6919 141.801 29.233 140.005L38.8691 108.013C39.2492 106.751 38.3264 105.473 37.0091 105.437L2.83217 104.497C0.939981 104.445 0.172207 102.037 1.68496 100.899L28.675 80.5983C29.7387 79.7982 29.7387 78.2018 28.675 77.4017L1.68497 57.1008C0.17221 55.9629 0.939971 53.5553 2.83216 53.5032L37.0091 52.5628C38.3264 52.5266 39.2492 51.2485 38.8691 49.9867L29.233 17.9955C28.6919 16.1992 30.699 14.7135 32.259 15.7556L60.6067 34.6933C61.6844 35.4133 63.1519 34.9336 63.5964 33.7161L75.1213 2.14632Z" fill="#A8D6AE"/>
</svg>
