<svg width="82" height="78" viewBox="0 0 82 78" fill="none" xmlns="http://www.w3.org/2000/svg">
<path d="M39.1998 1.71905C39.9282 0.214219 42.0718 0.214221 42.8002 1.71905L50.8052 18.2567C51.2117 19.0965 52.1448 19.5436 53.0541 19.3343L71.2586 15.1435C72.9078 14.7638 74.2538 16.4764 73.4951 17.9891L65.3337 34.261C64.9039 35.118 65.1427 36.1595 65.903 36.7436L80.4739 47.9386C81.8247 48.9764 81.3426 51.1199 79.6775 51.4795L61.5097 55.4023C60.5838 55.6023 59.9251 56.4243 59.9319 57.3715L60.0613 75.5736C60.0732 77.2518 58.1376 78.1975 56.821 77.1568L42.2403 65.6305C41.5133 65.0558 40.4867 65.0558 39.7597 65.6305L25.179 77.1568C23.8624 78.1975 21.9268 77.2518 21.9387 75.5736L22.0681 57.3715C22.0749 56.4243 21.4162 55.6023 20.4903 55.4023L2.32248 51.4795C0.65741 51.1199 0.175306 48.9764 1.5261 47.9386L16.097 36.7436C16.8573 36.1595 17.0961 35.118 16.6663 34.261L8.50494 17.9891C7.74622 16.4764 9.09217 14.7638 10.7414 15.1435L28.9459 19.3343C29.8552 19.5436 30.7883 19.0965 31.1948 18.2567L39.1998 1.71905Z" fill="#005740"/>
</svg>
