<svg width="116" height="64" viewBox="0 0 116 64" fill="none" xmlns="http://www.w3.org/2000/svg">
<path d="M20.2229 20.0235C21.3031 21.2019 21.8922 22.6748 21.8922 24.4423C21.8922 25.817 21.6958 27.29 20.9103 28.9593C25.1327 29.4502 26.9002 31.8069 27.4893 34.5564C27.7839 35.7347 27.6857 36.6185 25.2309 36.4221C24.1507 36.3239 22.9724 36.2257 21.8922 36.2257C19.9283 36.2257 18.5536 36.3239 16.7861 36.5203C14.9204 39.6625 13.2511 42.7066 11.9745 45.8488C11.3854 47.1253 10.3052 48.0091 8.53771 46.7326C7.06478 45.6524 6.27922 44.4741 6.27922 42.0192C6.27922 41.0373 6.672 39.4661 7.16298 38.0914L7.45756 37.2077C2.9406 36.8149 1.07489 34.5564 0.387527 31.6105C0.0929421 30.2358 0.485722 29.3521 2.64601 29.5484C5.00269 29.7448 8.43951 29.5484 11.189 29.3521C14.3312 23.7549 15.4114 21.8892 16.3933 20.2199C17.2771 18.5506 18.9464 18.4524 20.2229 20.0235Z" fill="#005740"/>
<path d="M75.0602 12.6589C75.0602 15.3102 74.471 18.1578 72.6053 21.791C69.1685 28.7629 56.2068 42.7066 39.1208 52.8207C42.1649 52.1333 45.2089 51.8387 47.5656 51.7405C52.8681 51.7405 56.0104 53.508 57.1887 56.8466C57.6797 58.1232 57.5815 59.0069 55.2248 59.0069C49.8241 59.0069 37.2551 61.1672 31.658 62.8365C28.7122 63.7203 27.141 63.3275 25.7663 61.9528C24.588 60.578 23.606 58.9087 23.2133 57.6322C22.4277 55.6683 22.8205 54.5882 25.079 53.1152C47.5656 39.7607 67.7938 19.5326 67.7938 9.90945C67.7938 7.0618 66.1244 5.88346 64.9461 5.88346C61.1165 5.88346 55.4212 13.2481 52.8681 17.1759C49.7259 21.9874 47.1728 24.1477 42.2631 23.8531C40.1028 23.7549 39.9064 23.264 40.4956 21.5947C42.0667 16.9795 48.0566 6.47263 56.1086 2.44663C58.0725 1.36649 60.4291 0.777325 62.7858 0.777325C66.0263 0.777325 69.1685 1.95566 71.3288 4.21414C73.6855 6.47263 75.0602 9.12389 75.0602 12.6589Z" fill="#005740"/>
<path d="M92.3126 28.2719C97.6151 38.7788 98.4989 42.2156 98.4989 45.6524C98.4989 49.6784 97.0259 53.8026 92.9017 57.8286C89.4649 61.4618 83.475 63.3275 78.1725 63.3275C75.5212 63.3275 72.9682 62.9347 71.0043 61.9528C65.8981 59.3997 63.836 55.4719 63.836 51.3477C63.836 48.3037 65.0144 44.9651 66.4873 42.2156C69.2368 37.2076 74.8339 31.4142 81.1183 26.308C79.6454 22.8712 78.5653 19.1398 78.9581 16.5867C80.0382 10.695 85.7335 4.41054 91.4288 2.05386C93.6873 1.07191 96.4368 0.580933 98.7934 0.580933C104.98 0.580933 109.693 3.91956 109.693 10.4986C110.184 10.4004 111.166 10.3022 111.657 10.3022C113.228 10.3022 114.406 10.4986 115.192 11.186C116.076 11.8734 116.076 13.2481 114.996 13.8373C108.908 17.1759 100.561 22.282 92.3126 28.2719ZM88.483 16.6849C88.483 17.8632 88.6794 19.3362 89.0721 20.6127C93.0981 17.765 97.5169 15.3102 101.641 13.4445C101.936 9.12389 100.365 4.99971 97.1241 5.49068C92.8036 6.17805 88.483 11.7752 88.483 16.6849ZM88.5812 45.7506C88.5812 42.6084 86.7155 38.5824 84.7516 34.36C79.6454 38.7788 75.423 43.4921 73.361 48.2055C72.5754 50.0712 71.9862 51.8387 71.9862 53.508C71.9862 56.5521 73.9501 58.2214 76.6996 58.2214C79.2526 58.2214 82.1985 56.9448 84.5552 54.49C86.6173 52.1333 88.5812 49.7766 88.5812 45.7506Z" fill="#005740"/>
</svg>
